<svg xmlns="http://www.w3.org/2000/svg" viewBox="0 0 560 560"><path d="M453.8 303.946875c9.0875 10.90625 15.753125 20.446875 19.99375 28.628125 4.240625 8.178125 6.665625 13.934375 7.271875 17.26875.60625 3.33125.909375 8.634375.909375 15.903125 0 8.48125-3.484375 16.509375-10.45 24.084375-6.96875 7.571875-14.0875 11.359375-21.35625 11.359375v26.35625c0 35.140625-9.54375 63.1625-28.628125 84.065625-19.084375 20.903125-45.590625 31.353125-79.521875 31.353125-40.59375 0-74.675-16.20625-102.240625-48.621875S198.425 423.303125 198.425 378.46875c0-21.8125 4.090625-40.896875 12.26875-57.25625s17.41875-30.29375 27.71875-41.80625 16.359375-19.99375 18.175-25.446875l-21.8125-19.99375 21.8125-21.8125V197.6125c-33.928125 26.053125-56.65 39.078125-68.159375 39.078125-4.846875-2.425-6.665625-12.26875-5.453125-29.5375 1.2125-17.26875 4.240625-38.01875 9.0875-62.253125l-9.99375-9.99375-58.1625 16.359375 21.8125 21.8125-98.15-9.996875 82.7-55.4375-10.90625 29.990625L177.525 121.275c-1.2125-7.271875 1.3625-13.48125 7.725-18.63125 6.3625-5.15 14.69375-7.725 24.99375-7.725l3.63125 17.26875 37.2625-10.90625c1.81875-6.059375 5.3-10.753125 10.45-14.0875s10.753125-3.7875 16.8125-1.3625c0-6.059375 3.484375-11.6625 10.45-16.8125 6.96875-5.15 14.69375-7.725 23.175-7.725 10.3 0 20.903125 5.453125 31.809375 16.359375L392 64.021875l7.271875-18.175 64.525-17.26875-10.90625 27.265625 21.8125 17.26875L411.0875 90.375l-16.359375-12.721875L350.196875 90.375l9.996875 32.715625h-11.815625v14.540625c0 5.453125-1.2125 9.390625-3.634375 11.815625-2.425 2.425-5.15 3.028125-8.178125 1.81875l-9.0875-2.725v19.99375h21.8125c6.059375 0 14.2375 11.209375 24.5375 33.625 10.3 22.41875 18.478125 44.53125 24.5375 66.34375L408.3625 195.8v-29.990625l-3.634375-36.353125H414.725l3.634375 27.265625h2.725l3.634375-27.265625h9.996875l-3.634375 27.265625c4.846875 0 7.271875 3.028125 7.271875 9.0875 0 7.875-4.846875 18.175-14.540625 30.9 2.425 29.08125 1.515625 53.46875-2.725 73.159375-4.240625 19.690625-10.603125 29.5375-19.084375 29.5375-11.5125 0-26.659375-23.021875-45.440625-69.06875l-22.71875 52.709375c10.3 11.5125 15.45 23.93125 15.45 37.2625 0 12.721875-4.090625 23.78125-12.26875 33.171875-8.178125 9.390625-16.8125 14.0875-25.9 14.0875 0 32.1125 6.059375 57.40625 18.175 75.884375 12.11875 18.478125 27.565625 27.71875 46.35 27.71875 13.934375 0 24.690625-4.39375 32.2625-13.178125 7.571875-8.784375 11.359375-19.84375 11.359375-33.171875v-8.178125h-30.9c-12.721875 0-21.659375-4.39375-26.809375-13.178125-5.15-8.784375-7.725-24.990625-7.725-48.621875h8.178125l4.54375 8.178125H387.4625c15.753125 0 28.475 5.75625 38.16875 17.26875 0-24.840625 3.9375-40.59375 11.815625-47.259375l15.45-11.815625-6.3625-12.721875L453.8 303.946875zM316.571875 87.65l-18.175 15.45 19.084375 10.90625 18.175-13.63125-19.084375-12.725zM209.33125 201.25c29.08125-21.8125 50.89375-32.715625 65.434375-32.715625h26.35625l6.3625-39.078125c-11.5125 9.0875-21.20625 13.63125-29.08125 13.63125-12.721875 0-21.509375-8.178125-26.35625-24.5375l-36.353125 10.90625c0 5.453125-2.121875 10.90625-6.3625 16.359375V201.25zm39.078125 141.775l39.078125-39.078125h-39.078125V343.025z"/></svg>